<?xml version="1.0" encoding="utf-8"?>
<!-- Generator: Adobe Illustrator 18.0.0, SVG Export Plug-In . SVG Version: 6.00 Build 0)  -->
<!DOCTYPE svg PUBLIC "-//W3C//DTD SVG 1.1 Tiny//EN" "http://www.w3.org/Graphics/SVG/1.1/DTD/svg11-tiny.dtd">
<svg version="1.1" baseProfile="tiny" xmlns="http://www.w3.org/2000/svg" xmlns:xlink="http://www.w3.org/1999/xlink" x="0px"
	 y="0px" viewBox="0 0 56.101 56.101" xml:space="preserve">
<g id="Layer_1">
	<path fill="none" stroke="#FFFFFF" stroke-width="4" stroke-miterlimit="10" d="M28.05,54.101c14.343,0,26.05-11.707,26.05-26.05
		S42.394,2,28.05,2C13.679,2,2,13.707,2,28.05S13.679,54.101,28.05,54.101L28.05,54.101z"/>
	<path fill="#FFFFFF" stroke="#FFFFFF" stroke-width="1.55" stroke-miterlimit="10" d="M20.146,14.017H31.29
		c0.172,0,0.337,0.068,0.458,0.19l7.807,7.807c0.121,0.121,0.19,0.286,0.19,0.458l0,15.822c0,1.141-0.423,2.286-1.302,3.012
		c-0.628,0.519-1.364,0.778-2.206,0.778h-16.09c-1.141,0-2.286-0.423-3.012-1.302c-0.519-0.628-0.778-1.364-0.778-2.206v-21.05
		c0-0.843,0.259-1.578,0.778-2.206C17.861,14.44,19.006,14.017,20.146,14.017z M29.22,23.894v-6.891c0-0.358-0.29-0.648-0.648-0.648
		h-8.708c-0.329,0-0.606,0.113-0.831,0.338c-0.225,0.225-0.338,0.502-0.338,0.831v21.05c0,0.329,0.113,0.606,0.338,0.831
		s0.502,0.338,0.831,0.338h16.372c0.329,0,0.606-0.113,0.831-0.338s0.338-0.502,0.338-0.831V25.19c0-0.358-0.29-0.648-0.648-0.648
		h-6.891C29.51,24.542,29.22,24.252,29.22,23.894z M35.332,21.097l-2.667-2.667c-0.408-0.408-1.106-0.119-1.106,0.458v2.667
		c0,0.358,0.29,0.648,0.648,0.648h2.667C35.451,22.203,35.74,21.505,35.332,21.097z"/>
</g>
<g id="Layer_2">
</g>
</svg>
