<?xml version="1.0" encoding="utf-8"?>
<!-- Generator: Adobe Illustrator 18.0.0, SVG Export Plug-In . SVG Version: 6.00 Build 0)  -->
<!DOCTYPE svg PUBLIC "-//W3C//DTD SVG 1.1 Tiny//EN" "http://www.w3.org/Graphics/SVG/1.1/DTD/svg11-tiny.dtd">
<svg version="1.1" baseProfile="tiny" xmlns="http://www.w3.org/2000/svg" xmlns:xlink="http://www.w3.org/1999/xlink" x="0px"
	 y="0px" viewBox="0 0 56.101 56.101" xml:space="preserve">
<g id="Layer_1">
	<path fill="none" stroke="#000000" stroke-width="4" stroke-miterlimit="10" d="M28.05,54.101c14.343,0,26.05-11.707,26.05-26.05
		S42.394,2,28.05,2C13.679,2,2,13.707,2,28.05S13.679,54.101,28.05,54.101L28.05,54.101z"/>
	<path fill="#FFFFFF" stroke="#FFFFFF" stroke-width="1.5" stroke-miterlimit="10" d="M36.961,20.4
		c1.162,1.162,2.061,2.498,2.698,4.007c0.663,1.562,0.994,3.196,0.994,4.903c0,1.707-0.331,3.342-0.994,4.903
		c-0.637,1.51-1.536,2.846-2.698,4.007c-1.162,1.162-2.498,2.061-4.007,2.698c-1.562,0.663-3.196,0.994-4.903,0.994
		s-3.342-0.331-4.903-0.994c-1.51-0.637-2.846-1.536-4.007-2.698c-1.162-1.162-2.061-2.498-2.698-4.007
		c-0.663-1.562-0.994-3.196-0.994-4.903s0.331-3.342,0.994-4.903c0.637-1.51,1.536-2.846,2.698-4.007
		c0.243-0.243,0.538-0.364,0.886-0.364c0.348,0,0.646,0.121,0.896,0.364c0.25,0.243,0.374,0.538,0.374,0.886
		c0,0.348-0.125,0.646-0.374,0.896c-0.926,0.926-1.648,1.992-2.166,3.2c-0.525,1.26-0.788,2.57-0.788,3.928s0.263,2.668,0.788,3.928
		c0.518,1.207,1.24,2.274,2.166,3.2s1.992,1.648,3.2,2.166c1.26,0.525,2.57,0.788,3.928,0.788s2.668-0.263,3.928-0.788
		c1.207-0.518,2.274-1.24,3.2-2.166c0.926-0.926,1.648-1.992,2.166-3.2c0.525-1.26,0.788-2.57,0.788-3.928s-0.263-2.668-0.788-3.928
		c-0.518-1.207-1.24-2.274-2.166-3.2c-0.25-0.25-0.374-0.548-0.374-0.896c0-0.348,0.125-0.643,0.374-0.886
		c0.25-0.243,0.548-0.364,0.896-0.364c0.348,0,0.643,0.121,0.886,0.364L36.961,20.4z M28.052,14.187
		c0.348,0,0.645,0.123,0.891,0.369s0.369,0.543,0.369,0.891v12.602c0,0.348-0.123,0.645-0.369,0.891
		c-0.246,0.246-0.543,0.369-0.891,0.369s-0.645-0.123-0.891-0.369c-0.246-0.246-0.369-0.543-0.369-0.891V15.447
		c0-0.348,0.123-0.645,0.369-0.891C27.407,14.31,27.704,14.187,28.052,14.187z"/>
</g>
<g id="Layer_2">
</g>
</svg>
